/vscmnt/brussel_pixiu_data/_data_brussel/112/vsc11236/PredSimResults/SUBJ07mtu3D/weighted-LRposFixed/trackIG/worker_01.mot
version=1
nRows=4
nColumns=50
inDegrees=yes
endheader
                time	         pelvis_tilt	         pelvis_list	     pelvis_rotation	           pelvis_tx	           pelvis_ty	           pelvis_tz	       hip_flexion_r	     hip_adduction_r	      hip_rotation_r	        knee_angle_r	       ankle_angle_r	         mtp_angle_r	       hip_flexion_l	     hip_adduction_l	      hip_rotation_l	        knee_angle_l	       ankle_angle_l	         mtp_angle_l	    lumbar_extension	      lumbar_bending	     lumbar_rotation	 ercspn_r/activation	 intobl_r/activation	 extobl_r/activation	    abd_r/activation	    add_r/activation	hamstrings_r/activation	bifemsh_r/activation	glut_max_r/activation	iliopsoas_r/activation	rect_fem_r/activation	  vasti_r/activation	gastroc_r/activation	 soleus_r/activation	tib_ant_r/activation	 ercspn_l/activation	 intobl_l/activation	 extobl_l/activation	    abd_l/activation	    add_l/activation	hamstrings_l/activation	bifemsh_l/activation	glut_max_l/activation	iliopsoas_l/activation	rect_fem_l/activation	  vasti_l/activation	gastroc_l/activation	 soleus_l/activation	tib_ant_l/activation	
          0.00000000	         -6.18643196	         -3.86318332	          8.52100043	          0.00000000	          0.84562313	         -0.01114879	         30.75407625	          0.17114574	         -6.21921018	         -3.36521778	          7.52068542	          0.25144816	        -13.29616487	         -4.52659119	          4.52729074	         -7.62363952	          8.30055268	         27.80204495	         -6.89514584	          2.27065834	         -3.70754079	          0.10045264	          0.17926104	          0.02650322	          0.01265679	          0.11950839	          0.06463267	          0.20966160	          0.00999999	          0.07458056	          0.00999999	          0.00999999	          0.01560234	          0.00999999	          0.27123393	          0.03831015	          0.00999999	          0.00999999	          0.03543458	          0.03897527	          0.02771903	          0.13957659	          0.02730943	          0.36597707	          0.01000000	          0.00999999	          0.25855142	          0.25424446	          0.01953777	
          0.01093655	         -6.24885730	         -3.72614973	          8.39612411	          0.01623260	          0.84380457	         -0.01091524	         30.82287079	          0.35934003	         -5.31766222	         -5.14875110	          7.18154566	          0.24741667	        -13.32410345	         -4.37381277	          3.97838600	         -9.56090574	          7.57240366	         29.52409558	         -6.70815012	          2.70475466	         -3.80604381	          0.08496548	          0.15163714	          0.02241712	          0.01070545	          0.17435134	          0.05910167	          0.17733729	          0.07842958	          0.06308220	          0.01000000	          0.00999999	          0.02296344	          0.01754916	          0.27760109	          0.09465297	          0.00999999	          0.01000000	          0.02997149	          0.08398452	          0.02344549	          0.11805755	          0.02309903	          0.37651046	          0.01000000	          0.01000002	          0.21868958	          0.23588256	          0.01652556	
          0.02187311	         -6.29495896	         -3.59186303	          8.21525871	          0.03272170	          0.84213647	         -0.01064736	         30.70452276	          0.52355368	         -4.44576888	         -6.81610603	          6.79937516	          0.23781445	        -13.16898344	         -4.20895368	          3.37221266	        -11.89429255	          6.74493808	         31.14253935	         -6.50781805	          3.16096437	         -3.87633008	          0.07915199	          0.12825868	          0.01896099	          0.08420100	          0.17335713	          0.06178047	          0.14999654	          0.08831296	          0.05335658	          0.00999999	          0.00999999	          0.01942308	          0.01484354	          0.32683251	          0.12145786	          0.00999999	          0.00999999	          0.02535068	          0.07103632	          0.01983081	          0.09985617	          0.01953777	          0.36191715	          0.00999999	          0.00999999	          0.18497339	          0.20343225	          0.01397775	
          0.03280966	         -6.32691060	         -3.45616235	          7.98081082	          0.04925053	          0.84080444	         -0.01028840	         30.44084582	          0.70446919	         -3.66467368	         -8.22243495	          6.31573707	          0.22192297	        -12.75492254	         -4.03668470	          2.72423159	        -14.71222657	          5.78120654	         32.52899924	         -6.31703288	          3.62108019	         -3.92008152	          0.09005345	          0.10848456	          0.01603770	          0.13108245	          0.18876326	          0.05530379	          0.12687101	          0.12918110	          0.04513039	          0.00999999	          0.00999999	          0.01642855	          0.01255506	          0.34941512	          0.15597186	          0.00999999	          0.00999999	          0.02144227	          0.08128749	          0.01677343	          0.08446098	          0.01652556	          0.34198961	          0.00999999	          0.00999999	          0.15645535	          0.17206834	          0.01182275	
